:SAMPLES-PER-SECOND 30
:FULLY-SPECIFIED
:DEGREES
307
root  58.6709 38.6056 5.12561 162.124 81.0424 162.965
RightUpLeg  -16.5402 -3.31738 -5.15576
RightLeg  10.975 22.3178 2.38375
RightFoot  5.80118 -0.91774 6.34641
RightToes  5.23868e-010 0 -3.6325e-017
Spine  13.7547 -3.13948 5.79648
Spine1  14.2701 -0.989939 -5.70283
HEad  -10.7436 -3.11645 1.04457
LeftShoulder1  1.47122 -3.4825 -14.1354
LeftArm  -3.32837 -58.7503 -43.5314
LeftForeArm  -25.6396 -22.6542 -6.13494
LeftHand  -0.124088 7.49259 -4.23536
RightShoulder  0.539862 -0.411574 10.3021
RightArm  -10.414 63.4179 32.5139
RightForeArm  -36.6886 11.5811 5.28685
RightHand  0.419281 4.1182 4.8297
LeftUpLeg  -10.5035 -1.99703 -3.55208
LeftLeg  21.2534 -2.96443 -0.93985
LeftFoot  -6.66751 -0.195071 5.7608
LeftToes  -4.9204e-010 1.02043e-011 -1.81609e-011
308
root  59.0471 38.6935 5.37583 163.881 80.0929 164.18
RightUpLeg  -16.4635 -3.01806 -4.9156
RightLeg  11.0637 21.1057 2.12421
RightFoot  5.54951 -0.764238 5.40083
RightToes  5.23868e-010 0 -3.6325e-017
Spine  14.0398 -3.18246 5.4743
Spine1  14.055 -1.44812 -4.5077
HEad  -10.9971 -3.42182 0.982895
LeftShoulder1  1.5476 -3.55337 -15.0964
LeftArm  -2.91453 -60.9568 -43.101
LeftForeArm  -26.2828 -19.7604 -6.24421
LeftHand  -0.132868 7.75813 -4.13968
RightShoulder  0.569449 0.0275775 8.73082
RightArm  -11.4455 64.5898 32.4371
RightForeArm  -38.0195 9.05143 5.09239
RightHand  0.333721 3.27406 4.2897
LeftUpLeg  -9.85824 -3.31014 -3.16195
LeftLeg  19.8842 -2.72761 -0.76536
LeftFoot  -7.30111 -0.122343 4.71161
LeftToes  -4.9204e-010 1.02043e-011 -1.81609e-011
309
root  59.3816 38.7919 5.62492 165.766 79.1176 165.147
RightUpLeg  -16.6957 -3.61202 -4.68679
RightLeg  10.8307 20.6259 2.13238
RightFoot  5.46909 -0.653282 4.67109
RightToes  5.23868e-010 0 -3.6325e-017
Spine  13.9371 -3.28077 5.14923
Spine1  13.8012 -1.83775 -3.78087
HEad  -11.7814 -3.48132 1.3558
LeftShoulder1  1.59392 -3.7434 -15.167
LeftArm  -5.00405 -62.9438 -43.0077
LeftForeArm  -24.2408 -16.4283 -6.53836
LeftHand  -0.140624 7.90247 -4.22204
RightShoulder  0.580036 0.131308 8.55468
RightArm  -12.9841 65.9206 32.6044
RightForeArm  -36.402 7.06362 4.41301
RightHand  0.32319 1.80845 5.06716
LeftUpLeg  -9.85007 -4.32634 -2.80046
LeftLeg  18.6732 -2.53685 -0.615257
LeftFoot  -7.44142 -0.0750391 3.52932
LeftToes  -4.9204e-010 1.02043e-011 -1.81609e-011
310
root  59.7005 38.8795 5.84844 164.973 78.8252 163.516
RightUpLeg  -17.0478 -4.68304 -4.63589
RightLeg  10.7871 21.2785 2.57028
RightFoot  5.37368 -0.53773 3.91055
RightToes  5.23868e-010 0 -3.6325e-017
Spine  13.7876 -3.10569 5.31628
Spine1  13.7903 -1.54467 -4.07997
HEad  -11.4058 -3.15345 1.09108
LeftShoulder1  1.63675 -4.12176 -14.5989
LeftArm  -6.74119 -64.7844 -43.2864
LeftForeArm  -22.5944 -13.3093 -6.69423
LeftHand  -0.147297 7.79647 -4.70116
RightShoulder  0.5821 0.16943 8.42852
RightArm  -13.8732 67.0611 32.8827
RightForeArm  -38.1314 4.904 4.06079
RightHand  0.162781 1.8331 2.45635
LeftUpLeg  -9.55185 -4.27939 -2.73318
LeftLeg  17.1918 -2.94462 -0.599093
LeftFoot  -7.14298 -0.0746486 3.20745
LeftToes  -4.9204e-010 1.02043e-011 -1.81609e-011
311
root  59.9875 38.9665 6.02904 166.488 78.6219 164.655
RightUpLeg  -16.6879 -4.56207 -3.97516
RightLeg  10.065 20.9989 1.96995
RightFoot  5.58798 -0.436384 3.18802
RightToes  5.23868e-010 0 -3.6325e-017
Spine  14.039 -3.24679 6.07485
Spine1  13.5454 -1.44625 -4.61605
HEad  -11.5291 -3.15 0.945683
LeftShoulder1  1.66933 -4.55356 -13.7661
LeftArm  -8.77218 -65.6415 -43.2488
LeftForeArm  -21.2316 -11.0925 -6.23266
LeftHand  -0.193705 8.67438 -4.88438
RightShoulder  0.60904 0.391696 8.2027
RightArm  -13.5916 68.8569 32.4291
RightForeArm  -38.4859 1.60246 4.22298
RightHand  0.1076 1.43212 1.69237
LeftUpLeg  -8.97307 -3.83259 -2.19688
LeftLeg  15.9618 -3.80227 -0.623395
LeftFoot  -7.06996 -0.0551026 2.62035
LeftToes  -4.9204e-010 1.02043e-011 -1.81609e-011
312
root  60.2655 39.0495 6.19726 167.174 78.2859 164.957
RightUpLeg  -16.3677 -4.69071 -3.59128
RightLeg  9.43973 20.8035 1.5788
RightFoot  5.78483 -0.368845 2.71203
RightToes  5.23868e-010 0 -3.6325e-017
Spine  13.673 -3.36221 6.28733
Spine1  13.9603 -1.54872 -4.64188
HEad  -11.9979 -2.81799 0.633633
LeftShoulder1  1.68841 -4.56816 -13.9911
LeftArm  -9.68819 -67.166 -42.9031
LeftForeArm  -19.9765 -8.6608 -5.89845
LeftHand  -0.192986 8.68054 -4.84967
RightShoulder  0.625742 0.644997 7.56109
RightArm  -14.0212 70.3609 33.2635
RightForeArm  -37.2113 -1.17382 3.70863
RightHand  0.0451408 0.089488 0.943532
LeftUpLeg  -8.30531 -3.08072 -1.92765
LeftLeg  14.5417 -5.0973 -0.625065
LeftFoot  -6.76798 -0.0526667 2.33542
LeftToes  -4.9204e-010 1.02043e-011 -1.81609e-011
313
root  60.5311 39.1221 6.36301 167.326 78.0032 164.532
RightUpLeg  -16.4156 -5.03624 -3.41247
RightLeg  9.13824 20.7987 1.56723
RightFoot  5.9027 -0.25829 1.96982
RightToes  5.23868e-010 0 -3.6325e-017
Spine  13.1421 -3.40848 6.17657
Spine1  14.2557 -1.5907 -4.77892
HEad  -12.354 -2.61828 0.757003
LeftShoulder1  1.66393 -4.63727 -13.4628
LeftArm  -10.4083 -68.3856 -42.4998
LeftForeArm  -19.1487 -6.44529 -5.38978
LeftHand  -0.192751 8.50983 -5.12576
RightShoulder  0.62572 0.545826 7.98721
RightArm  -13.8239 72.4003 34.2463
RightForeArm  -35.8397 -4.0711 3.41422
RightHand  -0.00823113 -1.09339 -0.0379209
LeftUpLeg  -7.93272 -2.35129 -1.85013
LeftLeg  13.2383 -6.01649 -0.485193
LeftFoot  -6.31742 -0.0628812 2.30073
LeftToes  -4.9204e-010 1.02043e-011 -1.81609e-011
314
root  60.7907 39.174 6.5216 168.064 77.9809 164.999
RightUpLeg  -16.1673 -5.08404 -2.98719
RightLeg  8.75921 20.6838 1.47231
RightFoot  5.94759 -0.187769 1.50225
RightToes  5.23868e-010 0 -3.6325e-017
Spine  12.8332 -3.11542 5.76935
Spine1  14.5898 -1.7035 -3.56465
HEad  -12.5252 -2.65234 0.376198
LeftShoulder1  1.73639 -4.66344 -14.3699
LeftArm  -10.66 -69.1881 -42.065
LeftForeArm  -18.5396 -5.36029 -5.33436
LeftHand  -0.171978 8.43149 -4.52134
RightShoulder  0.634441 0.892276 6.81683
RightArm  -15.0466 73.1996 34.9873
RightForeArm  -33.702 -5.56534 2.58019
RightHand  -0.00783164 -2.58302 0.270883
LeftUpLeg  -7.44303 -1.96189 -1.49729
LeftLeg  12.3813 -6.4814 -0.292809
LeftFoot  -6.32135 -0.0337373 1.63754
LeftToes  -4.9204e-010 1.02043e-011 -1.81609e-011
